{"glyphs":{"0":{"ha":1563,"x_min":0,"x_max":0,"o":"m 0 0 l 174 0 l 174 -174 l 1214 -174 l 1215 0 l 1388 0 l 1388 693 l 1214 693 l 1214 867 l 174 867 l 174 694 l 868 694 l 868 521 l 694 519 l 694 347 l 868 347 l 868 0 l 519 -1 l 521 174 l 693 174 l 693 346 l 519 346 l 519 693 l 0 693 z "},"1":{"ha":868,"x_min":0,"x_max":0,"o":"m 174 0 l 693 0 l 693 867 l 0 867 l 0 694 l 174 694 z "},"2":{"ha":1215,"x_min":0,"x_max":0,"o":"m 0 0 l 1040 0 l 1040 172 l 693 172 l 694 347 l 867 347 l 868 521 l 1040 521 l 1040 693 l 867 693 l 867 867 l 0 867 l 0 521 l 172 521 l 174 694 l 521 694 l 521 521 l 347 519 l 347 347 l 174 346 l 174 174 l 0 174 z "},"3":{"ha":1042,"x_min":0,"x_max":0,"o":"m 0 -347 l 693 -347 l 694 -174 l 867 -174 l 867 172 l 693 172 l 694 347 l 867 347 l 867 693 l 693 693 l 693 867 l 0 867 l 0 521 l 172 521 l 174 694 l 347 694 l 347 347 l 0 346 l 0 174 l 347 174 l 347 -174 l 0 -174 z "},"4":{"ha":1563,"x_min":0,"x_max":0,"o":"m 694 -174 l 1214 -174 l 1215 174 l 1388 174 l 1388 346 l 1214 346 l 1214 867 l 347 867 l 347 694 l 694 694 l 694 347 l 519 346 l 519 693 l 174 693 l 174 521 l 0 519 l 0 174 l 694 174 z "},"5":{"ha":1215,"x_min":0,"x_max":0,"o":"m 0 -347 l 867 -347 l 868 -174 l 1040 -174 l 1040 172 l 867 172 l 867 346 l 519 346 l 521 694 l 1040 694 l 1040 867 l 0 867 l 0 347 l 174 347 l 174 174 l 521 174 l 521 -174 l 0 -174 z "},"6":{"ha":1563,"x_min":0,"x_max":0,"o":"m 0 0 l 174 0 l 174 -174 l 1214 -174 l 1215 0 l 1388 0 l 1388 346 l 1214 346 l 1214 519 l 519 519 l 521 694 l 1214 694 l 1214 867 l 174 867 l 174 694 l 0 693 l 0 347 l 868 347 l 868 0 l 519 -1 l 519 346 l 0 346 z "},"7":{"ha":1389,"x_min":0,"x_max":0,"o":"m 174 -174 l 693 -174 l 694 174 l 867 174 l 868 347 l 1040 347 l 1042 521 l 1214 521 l 1214 867 l 0 867 l 0 694 l 694 694 l 694 521 l 521 519 l 521 347 l 347 346 l 347 174 l 174 174 z "},"8":{"ha":1563,"x_min":0,"x_max":0,"o":"m 0 0 l 0 -174 l 174 -174 l 174 -347 l 1214 -347 l 1215 -174 l 1388 -174 l 1388 172 l 1214 172 l 1215 347 l 1388 347 l 1388 693 l 1214 693 l 1214 867 l 868 867 l 868 347 l 519 346 l 521 694 l 867 694 l 867 867 l 174 867 l 174 694 l 0 693 l 0 347 l 174 347 l 174 174 l 868 174 l 868 -174 l 519 -175 l 519 172 l 0 172 z "},"9":{"ha":1563,"x_min":0,"x_max":0,"o":"m 174 -347 l 1040 -347 l 1042 -174 l 1214 -174 l 1215 0 l 1388 0 l 1388 693 l 1214 693 l 1214 867 l 868 867 l 868 347 l 519 346 l 521 694 l 867 694 l 867 867 l 174 867 l 174 694 l 0 693 l 0 347 l 174 347 l 174 174 l 868 174 l 868 0 l 694 -1 l 694 -174 l 174 -174 z "}," ":{"ha":694,"x_min":0,"x_max":0,"o":""}," ":{"ha":694,"x_min":0,"x_max":0,"o":""},"!":{"ha":694,"x_min":0,"x_max":0,"o":"m 0 0 l 174 0 l 174 -174 l 346 -174 l 347 0 l 519 0 l 519 172 l 346 172 l 346 346 l 174 346 l 174 174 l 0 174 z m 0 347 l 172 347 l 174 521 l 347 521 l 347 347 l 519 347 l 519 1214 l 0 1214 z "},"\"":{"ha":1042,"x_min":0,"x_max":0,"o":"m 0 694 l 346 694 l 346 1214 l 0 1214 z m 521 694 l 867 694 l 867 1214 l 521 1214 z "},"#":{"ha":2431,"x_min":0,"x_max":0,"o":"m 347 -174 l 693 -174 l 694 174 l 1042 174 l 1042 -174 l 1388 -174 l 1389 174 l 1908 174 l 1908 346 l 1561 346 l 1563 521 l 1735 521 l 1736 694 l 2256 694 l 2256 867 l 1908 867 l 1908 1214 l 1563 1214 l 1563 868 l 1214 867 l 1214 1214 l 868 1214 l 868 868 l 347 867 l 347 694 l 1389 694 l 1389 521 l 1215 519 l 1215 347 l 867 346 l 868 521 l 1040 521 l 1040 693 l 694 693 l 694 521 l 521 519 l 521 347 l 0 346 l 0 174 l 347 174 z "},"$":{"ha":1563,"x_min":0,"x_max":0,"o":"m 521 -174 l 867 -174 l 868 174 l 1214 174 l 1215 347 l 1388 347 l 1388 519 l 1214 519 l 1214 693 l 519 693 l 521 868 l 1214 868 l 1214 1040 l 867 1040 l 867 1388 l 521 1388 l 521 1042 l 174 1040 l 174 868 l 0 867 l 0 694 l 174 694 l 174 521 l 868 521 l 868 347 l 0 346 l 0 174 l 521 174 z "},"%":{"ha":2257,"x_min":0,"x_max":0,"o":"m 347 0 l 693 0 l 694 174 l 867 174 l 868 347 l 1040 347 l 1042 521 l 1214 521 l 1215 694 l 1388 694 l 1389 868 l 1561 868 l 1563 1042 l 1735 1042 l 1735 1214 l 1389 1214 l 1389 1042 l 1215 1040 l 1215 868 l 1042 867 l 1042 694 l 868 693 l 868 521 l 694 519 l 694 347 l 521 346 l 521 174 l 347 174 z m 1389 0 l 1908 0 l 1910 174 l 2082 174 l 2082 346 l 1908 346 l 1908 519 l 1736 519 l 1736 174 l 1561 172 l 1563 347 l 1735 347 l 1735 519 l 1389 519 l 1389 347 l 1215 346 l 1215 174 l 1389 174 z m 174 694 l 693 694 l 694 868 l 867 868 l 867 1040 l 693 1040 l 693 1214 l 521 1214 l 521 868 l 346 867 l 347 1042 l 519 1042 l 519 1214 l 174 1214 l 174 1042 l 0 1040 l 0 868 l 174 868 z "},"&":{"ha":2083,"x_min":0,"x_max":0,"o":"m 174 0 l 1388 0 l 1389 174 l 1561 174 l 1563 521 l 1735 521 l 1735 693 l 868 693 l 868 521 l 1042 521 l 1042 174 l 519 172 l 521 694 l 693 694 l 693 867 l 519 867 l 521 1042 l 868 1042 l 868 868 l 1214 868 l 1214 1214 l 174 1214 l 174 1042 l 0 1040 l 0 868 l 174 868 l 174 694 l 0 693 l 0 174 l 174 174 z m 694 347 l 867 347 l 867 519 l 694 519 z m 1736 694 l 1908 694 l 1908 867 l 1736 867 z "},"'":{"ha":521,"x_min":0,"x_max":0,"o":"m 0 694 l 346 694 l 346 1214 l 0 1214 z "},"(":{"ha":868,"x_min":0,"x_max":0,"o":"m 347 -347 l 693 -347 l 693 -175 l 519 -175 l 519 172 l 346 172 l 347 694 l 519 694 l 521 1042 l 693 1042 l 693 1214 l 347 1214 l 347 1042 l 174 1040 l 174 694 l 0 693 l 0 174 l 174 174 l 174 -174 l 347 -174 z "},")":{"ha":868,"x_min":0,"x_max":0,"o":"m 0 -347 l 346 -347 l 347 -174 l 519 -174 l 521 174 l 693 174 l 693 693 l 519 693 l 519 1040 l 346 1040 l 346 1214 l 0 1214 l 0 1042 l 174 1042 l 174 694 l 347 694 l 347 174 l 174 172 l 174 -174 l 0 -174 z "},"*":{"ha":1389,"x_min":0,"x_max":0,"o":"m 521 0 l 693 0 l 694 347 l 867 347 l 868 521 l 1214 521 l 1214 693 l 867 693 l 867 867 l 693 867 l 693 1214 l 521 1214 l 521 868 l 347 867 l 347 694 l 0 693 l 0 521 l 347 521 l 347 347 l 521 347 z m 868 174 l 1040 174 l 1040 346 l 868 346 z m 174 174 l 346 174 l 346 346 l 174 346 z m 868 868 l 1040 868 l 1040 1040 l 868 1040 z m 174 868 l 346 868 l 346 1040 l 174 1040 z "},"+":{"ha":1215,"x_min":0,"x_max":0,"o":"m 347 0 l 693 0 l 694 521 l 1040 521 l 1040 693 l 693 693 l 693 1214 l 347 1214 l 347 694 l 0 693 l 0 521 l 347 521 z "},",":{"ha":694,"x_min":0,"x_max":0,"o":"m 0 -174 l 346 -174 l 347 0 l 519 0 l 519 346 l 174 346 l 174 0 l 0 0 z "},"-":{"ha":1389,"x_min":0,"x_max":0,"o":"m 868 521 l 1214 521 l 1214 693 l 0 693 l 0 521 z "},".":{"ha":521,"x_min":0,"x_max":0,"o":"m 0 0 l 346 0 l 346 346 l 0 346 z "},"/":{"ha":1563,"x_min":0,"x_max":0,"o":"m 0 0 l 346 0 l 347 174 l 519 174 l 521 347 l 693 347 l 694 521 l 867 521 l 868 694 l 1040 694 l 1042 868 l 1214 868 l 1215 1042 l 1388 1042 l 1388 1214 l 1042 1214 l 1042 1042 l 868 1040 l 868 868 l 694 867 l 694 694 l 521 693 l 521 521 l 347 519 l 347 347 l 174 346 l 174 174 l 0 174 z "},":":{"ha":521,"x_min":0,"x_max":0,"o":"m 0 0 l 346 0 l 346 346 l 0 346 z m 0 521 l 346 521 l 346 867 l 0 867 z "},";":{"ha":694,"x_min":0,"x_max":0,"o":"m 0 -174 l 346 -174 l 347 0 l 519 0 l 519 346 l 174 346 l 174 0 l 0 0 z m 174 521 l 519 521 l 519 867 l 174 867 z "},"<":{"ha":1042,"x_min":0,"x_max":0,"o":"m 521 0 l 867 0 l 867 172 l 693 172 l 693 346 l 519 346 l 519 519 l 346 519 l 347 694 l 519 694 l 521 868 l 693 868 l 694 1042 l 867 1042 l 867 1214 l 521 1214 l 521 1042 l 347 1040 l 347 868 l 174 867 l 174 694 l 0 693 l 0 521 l 174 521 l 174 347 l 347 347 l 347 174 l 521 174 z "},"=":{"ha":1042,"x_min":0,"x_max":0,"o":"m 521 174 l 867 174 l 867 346 l 0 346 l 0 174 z m 521 521 l 867 521 l 867 693 l 0 693 l 0 521 z "},">":{"ha":1042,"x_min":0,"x_max":0,"o":"m 0 0 l 346 0 l 347 174 l 519 174 l 521 347 l 693 347 l 694 521 l 867 521 l 867 693 l 693 693 l 693 867 l 519 867 l 519 1040 l 346 1040 l 346 1214 l 0 1214 l 0 1042 l 174 1042 l 174 868 l 347 868 l 347 694 l 521 694 l 521 521 l 347 519 l 347 347 l 174 346 l 174 174 l 0 174 z "},"?":{"ha":1389,"x_min":0,"x_max":0,"o":"m 347 -174 l 519 -174 l 521 0 l 693 0 l 693 172 l 519 172 l 519 346 l 347 346 l 347 174 l 174 172 l 174 0 l 347 0 z m 521 347 l 693 347 l 694 521 l 1040 521 l 1042 694 l 1214 694 l 1214 1040 l 1040 1040 l 1040 1214 l 174 1214 l 174 1042 l 0 1040 l 0 868 l 519 868 l 521 1042 l 694 1042 l 694 694 l 174 693 l 174 347 l 346 347 l 347 521 l 521 521 z "},"@":{"ha":2431,"x_min":0,"x_max":0,"o":"m 0 0 l 172 0 l 172 867 l 0 867 z m 347 -347 l 2082 -347 l 2082 -175 l 347 -175 z m 174 -174 l 346 -174 l 346 -1 l 174 -1 z m 2083 -174 l 2256 -174 l 2256 -1 l 2083 -1 z m 1910 174 l 2082 174 l 2082 346 l 1735 346 l 1735 693 l 521 693 l 521 521 l 347 519 l 347 347 l 521 347 l 521 174 l 1214 174 l 1214 346 l 867 346 l 868 521 l 1215 521 l 1215 347 l 1389 347 l 1389 174 z m 2083 347 l 2256 347 l 2256 867 l 2083 867 z m 1910 868 l 2082 868 l 2082 1040 l 1910 1040 z m 174 868 l 346 868 l 346 1040 l 174 1040 z m 347 1042 l 1908 1042 l 1908 1214 l 347 1214 z "},"A":{"ha":1736,"x_min":0,"x_max":0,"o":"m 0 0 l 172 0 l 172 172 l 0 172 z m 347 0 l 519 0 l 519 172 l 347 172 z m 694 0 l 1040 0 l 1042 174 l 1215 174 l 1215 0 l 1561 0 l 1561 172 l 1388 172 l 1388 519 l 1214 519 l 1214 867 l 1040 867 l 1040 1214 l 521 1214 l 521 868 l 694 868 l 694 521 l 868 521 l 868 174 l 694 174 z m 174 174 l 346 174 l 346 519 l 174 519 z m 521 347 l 693 347 l 693 519 l 521 519 z m 347 521 l 519 521 l 519 867 l 347 867 z "},"B":{"ha":1736,"x_min":0,"x_max":0,"o":"m 0 0 l 346 0 l 347 174 l 521 174 l 521 0 l 1388 0 l 1389 174 l 1561 174 l 1561 519 l 1388 519 l 1389 694 l 1561 694 l 1561 1040 l 1388 1040 l 1388 1214 l 1042 1214 l 1042 694 l 693 693 l 694 1042 l 1040 1042 l 1040 1214 l 521 1214 l 521 1042 l 346 1040 l 346 1214 l 0 1214 l 0 1042 l 174 1042 l 174 521 l 1042 521 l 1042 174 l 693 172 l 693 519 l 174 519 l 174 174 l 0 174 z "},"C":{"ha":1736,"x_min":0,"x_max":0,"o":"m 347 0 l 1388 0 l 1389 174 l 1561 174 l 1561 346 l 1215 346 l 1215 174 l 693 172 l 693 346 l 519 346 l 521 868 l 693 868 l 694 1042 l 1040 1042 l 1040 1214 l 347 1214 l 347 1042 l 174 1040 l 174 868 l 0 867 l 0 347 l 174 347 l 174 174 l 347 174 z m 1042 694 l 1561 694 l 1561 1214 l 1215 1214 l 1215 1042 l 1042 1042 z "},"D":{"ha":1736,"x_min":0,"x_max":0,"o":"m 0 0 l 346 0 l 347 174 l 521 174 l 521 0 l 1388 0 l 1389 174 l 1561 174 l 1561 1040 l 1388 1040 l 1388 1214 l 1042 1214 l 1042 174 l 693 172 l 694 1042 l 1040 1042 l 1040 1214 l 521 1214 l 521 1042 l 346 1040 l 346 1214 l 0 1214 l 0 1042 l 174 1042 l 174 174 l 0 174 z "},"E":{"ha":1910,"x_min":0,"x_max":0,"o":"m 0 0 l 346 0 l 347 174 l 521 174 l 521 0 l 1561 0 l 1563 174 l 1735 174 l 1735 346 l 1215 346 l 1215 174 l 693 172 l 694 521 l 868 521 l 868 347 l 1214 347 l 1214 867 l 868 867 l 868 694 l 693 693 l 694 1042 l 1215 1042 l 1215 868 l 1735 868 l 1735 1040 l 1561 1040 l 1561 1214 l 521 1214 l 521 1042 l 346 1040 l 346 1214 l 0 1214 l 0 1042 l 174 1042 l 174 174 l 0 174 z "},"F":{"ha":1910,"x_min":0,"x_max":0,"o":"m 0 0 l 346 0 l 347 174 l 521 174 l 521 0 l 867 0 l 867 172 l 693 172 l 694 521 l 868 521 l 868 347 l 1214 347 l 1214 867 l 868 867 l 868 694 l 693 693 l 694 1042 l 1215 1042 l 1215 868 l 1735 868 l 1735 1040 l 1561 1040 l 1561 1214 l 521 1214 l 521 1042 l 346 1040 l 346 1214 l 0 1214 l 0 1042 l 174 1042 l 174 174 l 0 174 z "},"G":{"ha":1910,"x_min":0,"x_max":0,"o":"m 347 0 l 1214 0 l 1215 174 l 1389 174 l 1389 0 l 1735 0 l 1735 172 l 1561 172 l 1563 347 l 1735 347 l 1735 519 l 868 519 l 868 347 l 1042 347 l 1042 174 l 693 172 l 693 346 l 519 346 l 521 868 l 693 868 l 694 1042 l 1040 1042 l 1040 1214 l 347 1214 l 347 1042 l 174 1040 l 174 868 l 0 867 l 0 347 l 174 347 l 174 174 l 347 174 z m 1042 694 l 1561 694 l 1561 1214 l 1215 1214 l 1215 1042 l 1042 1042 z "},"H":{"ha":2083,"x_min":0,"x_max":0,"o":"m 0 0 l 346 0 l 347 174 l 521 174 l 521 0 l 867 0 l 867 172 l 693 172 l 694 521 l 1215 521 l 1215 174 l 1042 172 l 1042 0 l 1388 0 l 1389 174 l 1563 174 l 1563 0 l 1908 0 l 1908 172 l 1735 172 l 1736 1042 l 1908 1042 l 1908 1214 l 1563 1214 l 1563 1042 l 1388 1040 l 1388 1214 l 1042 1214 l 1042 1042 l 1215 1042 l 1215 694 l 693 693 l 694 1042 l 867 1042 l 867 1214 l 521 1214 l 521 1042 l 346 1040 l 346 1214 l 0 1214 l 0 1042 l 174 1042 l 174 174 l 0 174 z "},"I":{"ha":1042,"x_min":0,"x_max":0,"o":"m 0 0 l 346 0 l 347 174 l 521 174 l 521 0 l 867 0 l 867 172 l 693 172 l 694 1042 l 867 1042 l 867 1214 l 521 1214 l 521 1042 l 346 1040 l 346 1214 l 0 1214 l 0 1042 l 174 1042 l 174 174 l 0 174 z "},"J":{"ha":1910,"x_min":0,"x_max":0,"o":"m 174 0 l 1388 0 l 1389 174 l 1561 174 l 1563 1042 l 1735 1042 l 1735 1214 l 1389 1214 l 1389 1042 l 1214 1040 l 1214 1214 l 868 1214 l 868 1042 l 1042 1042 l 1042 174 l 519 172 l 519 693 l 0 693 l 0 174 l 174 174 z "},"K":{"ha":2083,"x_min":0,"x_max":0,"o":"m 0 0 l 346 0 l 347 174 l 521 174 l 521 0 l 867 0 l 867 172 l 693 172 l 694 521 l 868 521 l 868 347 l 1042 347 l 1042 174 l 1215 174 l 1215 0 l 1908 0 l 1908 172 l 1561 172 l 1561 346 l 1388 346 l 1388 519 l 1214 519 l 1215 694 l 1388 694 l 1389 868 l 1561 868 l 1561 1040 l 1388 1040 l 1388 1214 l 1042 1214 l 1042 1042 l 1215 1042 l 1215 868 l 1042 867 l 1042 694 l 693 693 l 694 1042 l 867 1042 l 867 1214 l 521 1214 l 521 1042 l 346 1040 l 346 1214 l 0 1214 l 0 1042 l 174 1042 l 174 174 l 0 174 z m 1563 1042 l 1908 1042 l 1908 1214 l 1563 1214 z "},"L":{"ha":1910,"x_min":0,"x_max":0,"o":"m 0 0 l 346 0 l 347 174 l 521 174 l 521 0 l 1561 0 l 1563 174 l 1735 174 l 1735 693 l 1215 693 l 1215 174 l 693 172 l 694 1042 l 867 1042 l 867 1214 l 521 1214 l 521 1042 l 346 1040 l 346 1214 l 0 1214 l 0 1042 l 174 1042 l 174 174 l 0 174 z "},"M":{"ha":2083,"x_min":0,"x_max":0,"o":"m 0 0 l 172 0 l 172 172 l 0 172 z m 347 0 l 519 0 l 519 172 l 347 172 z m 1042 0 l 1388 0 l 1389 174 l 1563 174 l 1563 0 l 1908 0 l 1908 172 l 1735 172 l 1736 1042 l 1908 1042 l 1908 1214 l 1563 1214 l 1563 1042 l 1388 1040 l 1388 1214 l 1042 1214 l 1042 868 l 1215 868 l 1215 174 l 1042 174 z m 694 174 l 867 174 l 868 521 l 1040 521 l 1040 867 l 693 867 l 693 1214 l 0 1214 l 0 1042 l 174 1042 l 174 174 l 346 174 l 347 868 l 521 868 l 521 521 l 694 521 z "},"N":{"ha":1736,"x_min":0,"x_max":0,"o":"m 0 0 l 172 0 l 172 172 l 0 172 z m 347 0 l 519 0 l 519 172 l 347 172 z m 1042 0 l 1561 0 l 1561 172 l 1388 172 l 1388 1040 l 1215 1040 l 1215 521 l 1040 519 l 1040 693 l 867 693 l 867 867 l 693 867 l 693 1040 l 519 1040 l 519 1214 l 0 1214 l 0 1042 l 174 1042 l 174 174 l 346 174 l 347 694 l 521 694 l 521 521 l 694 521 l 694 347 l 868 347 l 868 174 l 1042 174 z m 1042 1042 l 1214 1042 l 1214 1214 l 1042 1214 z m 1389 1042 l 1561 1042 l 1561 1214 l 1389 1214 z "},"O":{"ha":1910,"x_min":0,"x_max":0,"o":"m 347 0 l 1388 0 l 1389 174 l 1561 174 l 1563 347 l 1735 347 l 1735 867 l 1561 867 l 1561 1040 l 1388 1040 l 1388 1214 l 1042 1214 l 1042 868 l 1215 868 l 1215 347 l 1042 346 l 1042 174 l 693 172 l 693 346 l 519 346 l 521 868 l 693 868 l 694 1042 l 1040 1042 l 1040 1214 l 347 1214 l 347 1042 l 174 1040 l 174 868 l 0 867 l 0 347 l 174 347 l 174 174 l 347 174 z "},"P":{"ha":1910,"x_min":0,"x_max":0,"o":"m 0 0 l 346 0 l 347 174 l 521 174 l 521 0 l 867 0 l 867 172 l 693 172 l 694 521 l 1561 521 l 1563 694 l 1735 694 l 1735 1040 l 1561 1040 l 1561 1214 l 1215 1214 l 1215 694 l 693 693 l 694 1042 l 1214 1042 l 1214 1214 l 521 1214 l 521 1042 l 346 1040 l 346 1214 l 0 1214 l 0 1042 l 174 1042 l 174 174 l 0 174 z "},"Q":{"ha":2083,"x_min":0,"x_max":0,"o":"m 347 0 l 1214 0 l 1215 174 l 1389 174 l 1389 0 l 1908 0 l 1908 172 l 1561 172 l 1563 347 l 1735 347 l 1735 867 l 1561 867 l 1561 1040 l 1388 1040 l 1388 1214 l 1042 1214 l 1042 868 l 1215 868 l 1215 521 l 694 519 l 694 347 l 1042 347 l 1042 174 l 693 172 l 693 346 l 519 346 l 521 868 l 693 868 l 694 1042 l 1040 1042 l 1040 1214 l 347 1214 l 347 1042 l 174 1040 l 174 868 l 0 867 l 0 347 l 174 347 l 174 174 l 347 174 z "},"R":{"ha":2083,"x_min":0,"x_max":0,"o":"m 0 0 l 346 0 l 347 174 l 521 174 l 521 0 l 867 0 l 867 172 l 693 172 l 694 521 l 868 521 l 868 347 l 1042 347 l 1042 174 l 1389 174 l 1389 0 l 1908 0 l 1908 172 l 1561 172 l 1561 346 l 1388 346 l 1389 521 l 1561 521 l 1563 694 l 1735 694 l 1735 1040 l 1561 1040 l 1561 1214 l 1215 1214 l 1215 694 l 693 693 l 694 1042 l 1214 1042 l 1214 1214 l 521 1214 l 521 1042 l 346 1040 l 346 1214 l 0 1214 l 0 1042 l 174 1042 l 174 174 l 0 174 z "},"S":{"ha":1736,"x_min":0,"x_max":0,"o":"m 0 0 l 346 0 l 347 174 l 519 174 l 519 346 l 0 346 z m 521 0 l 1388 0 l 1389 174 l 1561 174 l 1561 519 l 1388 519 l 1388 693 l 867 693 l 867 867 l 346 867 l 347 1042 l 1040 1042 l 1040 1214 l 174 1214 l 174 1042 l 0 1040 l 0 694 l 174 694 l 174 521 l 694 521 l 694 347 l 1215 347 l 1215 174 l 521 174 z m 1215 868 l 1561 868 l 1561 1214 l 1215 1214 l 1215 1042 l 1042 1040 l 1042 868 z "},"T":{"ha":1736,"x_min":0,"x_max":0,"o":"m 347 0 l 693 0 l 694 174 l 868 174 l 868 0 l 1214 0 l 1214 172 l 1040 172 l 1042 1042 l 1214 1042 l 1214 1214 l 868 1214 l 868 1042 l 693 1040 l 693 1214 l 347 1214 l 347 1042 l 521 1042 l 521 174 l 347 174 z m 0 694 l 346 694 l 346 1040 l 172 1040 l 172 1214 l 0 1214 z m 1215 694 l 1561 694 l 1561 1214 l 1389 1214 l 1389 1042 l 1215 1042 z "},"U":{"ha":1736,"x_min":0,"x_max":0,"o":"m 347 0 l 1214 0 l 1214 172 l 693 172 l 694 1042 l 867 1042 l 867 1214 l 521 1214 l 521 1042 l 346 1040 l 346 1214 l 0 1214 l 0 1042 l 174 1042 l 174 174 l 347 174 z m 1215 174 l 1388 174 l 1388 1040 l 1215 1040 z m 1042 1042 l 1214 1042 l 1214 1214 l 1042 1214 z m 1389 1042 l 1561 1042 l 1561 1214 l 1389 1214 z "},"V":{"ha":1736,"x_min":0,"x_max":0,"o":"m 521 0 l 1040 0 l 1040 346 l 867 346 l 867 693 l 693 693 l 694 1042 l 867 1042 l 867 1214 l 521 1214 l 521 1042 l 346 1040 l 346 1214 l 0 1214 l 0 1042 l 174 1042 l 174 694 l 347 694 l 347 347 l 521 347 z m 1042 347 l 1214 347 l 1214 693 l 1042 693 z m 1215 694 l 1388 694 l 1388 1040 l 1215 1040 z m 1042 1042 l 1214 1042 l 1214 1214 l 1042 1214 z m 1389 1042 l 1561 1042 l 1561 1214 l 1389 1214 z "},"W":{"ha":2778,"x_min":0,"x_max":0,"o":"m 521 0 l 1040 0 l 1040 346 l 867 346 l 867 693 l 693 693 l 694 1042 l 867 1042 l 867 1214 l 521 1214 l 521 1042 l 346 1040 l 346 1214 l 0 1214 l 0 1042 l 174 1042 l 174 694 l 347 694 l 347 347 l 521 347 z m 1563 0 l 2082 0 l 2082 346 l 1908 346 l 1908 693 l 1735 693 l 1736 1042 l 1908 1042 l 1908 1214 l 1563 1214 l 1563 1042 l 1388 1040 l 1388 1214 l 1042 1214 l 1042 1042 l 1215 1042 l 1215 694 l 1389 694 l 1389 347 l 1563 347 z m 1042 347 l 1214 347 l 1214 693 l 1042 693 z m 2083 347 l 2256 347 l 2256 693 l 2083 693 z m 2257 694 l 2429 694 l 2429 1040 l 2257 1040 z m 2083 1042 l 2256 1042 l 2256 1214 l 2083 1214 z m 2431 1042 l 2603 1042 l 2603 1214 l 2431 1214 z "},"X":{"ha":1736,"x_min":0,"x_max":0,"o":"m 0 0 l 346 0 l 346 172 l 0 172 z m 1042 0 l 1561 0 l 1561 172 l 1388 172 l 1388 346 l 1214 346 l 1214 519 l 1040 519 l 1040 867 l 693 867 l 693 1040 l 519 1040 l 519 1214 l 0 1214 l 0 1042 l 174 1042 l 174 868 l 347 868 l 347 694 l 521 694 l 521 347 l 868 347 l 868 174 l 1042 174 z m 347 174 l 519 174 l 519 346 l 347 346 z m 1042 868 l 1214 868 l 1214 1040 l 1042 1040 z m 1215 1042 l 1561 1042 l 1561 1214 l 1215 1214 z "},"Y":{"ha":1910,"x_min":0,"x_max":0,"o":"m 521 0 l 867 0 l 868 174 l 1042 174 l 1042 0 l 1388 0 l 1388 172 l 1214 172 l 1214 693 l 867 693 l 867 867 l 693 867 l 694 1042 l 867 1042 l 867 1214 l 521 1214 l 521 1042 l 346 1040 l 346 1214 l 0 1214 l 0 1042 l 174 1042 l 174 868 l 347 868 l 347 694 l 521 694 l 521 521 l 694 521 l 694 174 l 521 174 z m 1215 694 l 1388 694 l 1388 867 l 1215 867 z m 1389 868 l 1561 868 l 1561 1040 l 1389 1040 z m 1215 1042 l 1388 1042 l 1388 1214 l 1215 1214 z m 1563 1042 l 1735 1042 l 1735 1214 l 1563 1214 z "},"Z":{"ha":1563,"x_min":0,"x_max":0,"o":"m 0 0 l 346 0 l 347 174 l 521 174 l 521 0 l 1214 0 l 1215 174 l 1388 174 l 1388 346 l 1042 346 l 1042 174 l 693 172 l 694 347 l 867 347 l 868 521 l 1040 521 l 1042 694 l 1214 694 l 1215 1042 l 1388 1042 l 1388 1214 l 1042 1214 l 1042 1042 l 867 1040 l 867 1214 l 174 1214 l 174 1042 l 0 1040 l 0 868 l 519 868 l 521 1042 l 694 1042 l 694 694 l 521 693 l 521 521 l 347 519 l 347 347 l 174 346 l 174 174 l 0 174 z "},"[":{"ha":868,"x_min":0,"x_max":0,"o":"m 0 0 l 0 -347 l 693 -347 l 693 -175 l 346 -175 l 347 1042 l 693 1042 l 693 1214 l 0 1214 z "},"\\":{"ha":1563,"x_min":0,"x_max":0,"o":"m 1042 0 l 1388 0 l 1388 172 l 1214 172 l 1214 346 l 1040 346 l 1040 519 l 867 519 l 867 693 l 693 693 l 693 867 l 519 867 l 519 1040 l 346 1040 l 346 1214 l 0 1214 l 0 1042 l 174 1042 l 174 868 l 347 868 l 347 694 l 521 694 l 521 521 l 694 521 l 694 347 l 868 347 l 868 174 l 1042 174 z "},"]":{"ha":868,"x_min":0,"x_max":0,"o":"m 0 -347 l 693 -347 l 693 1214 l 0 1214 l 0 1042 l 347 1042 l 347 -174 l 0 -174 z "},"^":{"ha":1389,"x_min":0,"x_max":0,"o":"m 868 1215 l 1214 1215 l 1214 1388 l 1040 1388 l 1040 1561 l 867 1561 l 867 1735 l 347 1735 l 347 1563 l 174 1561 l 174 1389 l 0 1388 l 0 1215 l 346 1215 l 347 1389 l 519 1389 l 521 1563 l 694 1563 l 694 1389 l 868 1389 z "},"_":{"ha":1389,"x_min":0,"x_max":0,"o":"m 0 -174 l 1214 -174 l 1214 -1 l 0 -1 z "},"`":{"ha":694,"x_min":0,"x_max":0,"o":"m 174 868 l 519 868 l 519 1040 l 346 1040 l 346 1214 l 0 1214 l 0 1042 l 174 1042 z "},"a":{"ha":1736,"x_min":0,"x_max":0,"o":"m 174 0 l 867 0 l 867 172 l 519 172 l 521 347 l 868 347 l 868 174 l 1042 174 l 1042 0 l 1561 0 l 1561 172 l 1388 172 l 1388 693 l 1214 693 l 1214 867 l 172 867 l 172 694 l 868 694 l 868 521 l 174 519 l 174 347 l 0 346 l 0 174 l 174 174 z "},"b":{"ha":1736,"x_min":0,"x_max":0,"o":"m 0 0 l 519 0 l 521 174 l 693 174 l 694 521 l 867 521 l 867 693 l 693 693 l 693 1214 l 0 1214 l 0 1042 l 174 1042 l 174 174 l 0 174 z m 694 0 l 1388 0 l 1389 174 l 1561 174 l 1561 693 l 1388 693 l 1388 867 l 868 867 l 868 694 l 1042 694 l 1042 174 l 694 174 z "},"c":{"ha":1563,"x_min":0,"x_max":0,"o":"m 174 0 l 1214 0 l 1215 174 l 1388 174 l 1388 346 l 868 346 l 868 174 l 519 172 l 521 694 l 868 694 l 868 521 l 1388 521 l 1388 693 l 1214 693 l 1214 867 l 174 867 l 174 694 l 0 693 l 0 174 l 174 174 z "},"d":{"ha":1736,"x_min":0,"x_max":0,"o":"m 174 0 l 1040 0 l 1042 174 l 1215 174 l 1215 0 l 1561 0 l 1561 172 l 1388 172 l 1388 1214 l 694 1214 l 694 1042 l 868 1042 l 868 694 l 694 693 l 694 521 l 868 521 l 868 174 l 519 172 l 521 694 l 693 694 l 693 867 l 174 867 l 174 694 l 0 693 l 0 174 l 174 174 z "},"e":{"ha":1563,"x_min":0,"x_max":0,"o":"m 174 0 l 1214 0 l 1214 172 l 519 172 l 521 347 l 1214 347 l 1215 521 l 1388 521 l 1388 693 l 1214 693 l 1214 867 l 868 867 l 868 521 l 519 519 l 521 694 l 867 694 l 867 867 l 174 867 l 174 694 l 0 693 l 0 174 l 174 174 z "},"f":{"ha":1215,"x_min":0,"x_max":0,"o":"m 0 0 l 346 0 l 347 174 l 521 174 l 521 0 l 867 0 l 867 172 l 693 172 l 694 694 l 1040 694 l 1040 867 l 693 867 l 694 1042 l 1040 1042 l 1040 1214 l 347 1214 l 347 1042 l 174 1040 l 174 868 l 0 867 l 0 694 l 174 694 l 174 174 l 0 174 z "},"g":{"ha":1563,"x_min":0,"x_max":0,"o":"m 0 0 l 174 0 l 174 -347 l 1214 -347 l 1215 -174 l 1388 -174 l 1388 -1 l 1214 -1 l 1214 172 l 868 172 l 868 -174 l 519 -175 l 521 0 l 867 0 l 867 172 l 519 172 l 521 347 l 1214 347 l 1215 521 l 1388 521 l 1388 693 l 1214 693 l 1215 868 l 1388 868 l 1388 1040 l 1042 1040 l 1042 868 l 868 867 l 868 521 l 519 519 l 521 694 l 867 694 l 867 867 l 174 867 l 174 694 l 0 693 l 0 521 l 347 521 l 347 347 l 174 346 l 174 174 l 0 174 z "},"h":{"ha":2083,"x_min":0,"x_max":0,"o":"m 0 0 l 346 0 l 347 174 l 521 174 l 521 0 l 867 0 l 867 172 l 693 172 l 694 694 l 1042 694 l 1042 521 l 1215 521 l 1215 174 l 1042 172 l 1042 0 l 1388 0 l 1389 174 l 1563 174 l 1563 0 l 1908 0 l 1908 172 l 1735 172 l 1735 693 l 1561 693 l 1561 867 l 693 867 l 693 1214 l 0 1214 l 0 1042 l 174 1042 l 174 174 l 0 174 z "},"i":{"ha":1042,"x_min":0,"x_max":0,"o":"m 0 0 l 346 0 l 347 174 l 521 174 l 521 0 l 867 0 l 867 172 l 693 172 l 693 867 l 521 867 l 521 694 l 346 693 l 346 867 l 0 867 l 0 694 l 174 694 l 174 174 l 0 174 z m 347 868 l 519 868 l 521 1042 l 693 1042 l 693 1214 l 519 1214 l 519 1388 l 347 1388 l 347 1215 l 174 1214 l 174 1042 l 347 1042 z "},"j":{"ha":1042,"x_min":0,"x_max":0,"o":"m 0 -347 l 519 -347 l 521 -174 l 693 -174 l 694 0 l 867 0 l 867 867 l 694 867 l 694 694 l 519 693 l 519 867 l 174 867 l 174 694 l 347 694 l 347 0 l 174 -1 l 174 -174 l 0 -174 z m 521 868 l 693 868 l 694 1042 l 867 1042 l 867 1214 l 693 1214 l 693 1388 l 521 1388 l 521 1215 l 347 1214 l 347 1042 l 521 1042 z "},"k":{"ha":1910,"x_min":0,"x_max":0,"o":"m 0 0 l 346 0 l 347 174 l 521 174 l 521 0 l 867 0 l 867 172 l 693 172 l 694 347 l 1042 347 l 1042 174 l 1215 174 l 1215 0 l 1735 0 l 1735 172 l 1561 172 l 1561 346 l 1388 346 l 1389 521 l 1735 521 l 1735 693 l 1561 693 l 1561 867 l 868 867 l 868 694 l 1215 694 l 1215 521 l 867 519 l 867 693 l 693 693 l 693 1214 l 0 1214 l 0 1042 l 174 1042 l 174 174 l 0 174 z "},"l":{"ha":1042,"x_min":0,"x_max":0,"o":"m 0 0 l 346 0 l 347 174 l 521 174 l 521 0 l 867 0 l 867 172 l 693 172 l 693 1214 l 0 1214 l 0 1042 l 174 1042 l 174 174 l 0 174 z "},"m":{"ha":3125,"x_min":0,"x_max":0,"o":"m 0 0 l 346 0 l 347 174 l 521 174 l 521 0 l 867 0 l 867 172 l 693 172 l 694 521 l 867 521 l 867 693 l 693 693 l 693 867 l 0 867 l 0 694 l 174 694 l 174 174 l 0 174 z m 1042 0 l 1388 0 l 1389 174 l 1563 174 l 1563 0 l 1908 0 l 1908 172 l 1735 172 l 1736 521 l 1908 521 l 1908 693 l 1561 693 l 1561 867 l 868 867 l 868 694 l 1215 694 l 1215 174 l 1042 174 z m 2083 0 l 2429 0 l 2431 174 l 2604 174 l 2604 0 l 2950 0 l 2950 172 l 2776 172 l 2776 693 l 2603 693 l 2603 867 l 1910 867 l 1910 694 l 2257 694 l 2257 174 l 2083 174 z "},"n":{"ha":2083,"x_min":0,"x_max":0,"o":"m 0 0 l 346 0 l 347 174 l 521 174 l 521 0 l 867 0 l 867 172 l 693 172 l 694 521 l 867 521 l 867 693 l 693 693 l 693 867 l 0 867 l 0 694 l 174 694 l 174 174 l 0 174 z m 1042 0 l 1388 0 l 1389 174 l 1563 174 l 1563 0 l 1908 0 l 1908 172 l 1735 172 l 1735 693 l 1561 693 l 1561 867 l 868 867 l 868 694 l 1215 694 l 1215 174 l 1042 174 z "},"o":{"ha":1563,"x_min":0,"x_max":0,"o":"m 174 0 l 1214 0 l 1215 174 l 1388 174 l 1388 693 l 1214 693 l 1214 867 l 868 867 l 868 174 l 519 172 l 521 694 l 867 694 l 867 867 l 174 867 l 174 694 l 0 693 l 0 174 l 174 174 z "},"p":{"ha":1736,"x_min":0,"x_max":0,"o":"m 0 -347 l 346 -347 l 347 -174 l 521 -174 l 521 -347 l 867 -347 l 867 -175 l 693 -175 l 694 0 l 1388 0 l 1389 174 l 1561 174 l 1561 693 l 1388 693 l 1388 867 l 868 867 l 868 694 l 1042 694 l 1042 174 l 693 172 l 694 521 l 867 521 l 867 693 l 693 693 l 693 867 l 0 867 l 0 694 l 174 694 l 174 -174 l 0 -174 z "},"q":{"ha":1736,"x_min":0,"x_max":0,"o":"m 694 -347 l 1040 -347 l 1042 -174 l 1215 -174 l 1215 -347 l 1561 -347 l 1561 -175 l 1388 -175 l 1389 694 l 1561 694 l 1561 867 l 868 867 l 868 694 l 694 693 l 694 521 l 868 521 l 868 174 l 519 172 l 521 694 l 693 694 l 693 867 l 174 867 l 174 694 l 0 693 l 0 174 l 174 174 l 174 0 l 868 0 l 868 -174 l 694 -174 z "},"r":{"ha":1736,"x_min":0,"x_max":0,"o":"m 0 0 l 346 0 l 347 174 l 521 174 l 521 0 l 867 0 l 867 172 l 693 172 l 694 521 l 867 521 l 867 693 l 693 693 l 693 867 l 0 867 l 0 694 l 174 694 l 174 174 l 0 174 z m 1042 347 l 1388 347 l 1389 521 l 1561 521 l 1561 693 l 1388 693 l 1388 867 l 868 867 l 868 694 l 1042 694 z "},"s":{"ha":1563,"x_min":0,"x_max":0,"o":"m 0 0 l 1214 0 l 1215 174 l 1388 174 l 1388 346 l 1214 346 l 1214 519 l 519 519 l 521 694 l 1214 694 l 1214 867 l 174 867 l 174 694 l 0 693 l 0 521 l 174 521 l 174 347 l 868 347 l 868 174 l 0 174 z "},"t":{"ha":1215,"x_min":0,"x_max":0,"o":"m 347 0 l 867 0 l 867 172 l 693 172 l 694 694 l 1040 694 l 1040 867 l 693 867 l 693 1040 l 174 1040 l 174 868 l 0 867 l 0 694 l 174 694 l 174 174 l 347 174 z m 868 174 l 1040 174 l 1040 346 l 868 346 z "},"u":{"ha":2083,"x_min":0,"x_max":0,"o":"m 347 0 l 1040 0 l 1040 172 l 693 172 l 694 694 l 867 694 l 867 867 l 521 867 l 521 694 l 346 693 l 346 867 l 0 867 l 0 694 l 174 694 l 174 174 l 347 174 z m 1215 0 l 1908 0 l 1908 172 l 1735 172 l 1736 694 l 1908 694 l 1908 867 l 1563 867 l 1563 694 l 1388 693 l 1388 867 l 1042 867 l 1042 694 l 1215 694 l 1215 347 l 1042 346 l 1042 174 l 1215 174 z "},"v":{"ha":1736,"x_min":0,"x_max":0,"o":"m 521 0 l 1040 0 l 1040 172 l 867 172 l 867 519 l 693 519 l 694 694 l 867 694 l 867 867 l 521 867 l 521 694 l 346 693 l 346 867 l 0 867 l 0 694 l 174 694 l 174 521 l 347 521 l 347 174 l 521 174 z m 1042 174 l 1214 174 l 1214 519 l 1042 519 z m 1215 521 l 1388 521 l 1388 693 l 1215 693 z m 1042 694 l 1214 694 l 1214 867 l 1042 867 z m 1389 694 l 1561 694 l 1561 867 l 1389 867 z "},"w":{"ha":2778,"x_min":0,"x_max":0,"o":"m 521 0 l 1040 0 l 1040 172 l 867 172 l 867 519 l 693 519 l 694 694 l 867 694 l 867 867 l 521 867 l 521 694 l 346 693 l 346 867 l 0 867 l 0 694 l 174 694 l 174 521 l 347 521 l 347 174 l 521 174 z m 1563 0 l 2082 0 l 2082 172 l 1908 172 l 1908 519 l 1735 519 l 1735 867 l 1215 867 l 1215 521 l 1389 521 l 1389 174 l 1563 174 z m 2083 174 l 2256 174 l 2256 519 l 2083 519 z m 1042 174 l 1214 174 l 1214 519 l 1042 519 z m 2257 521 l 2429 521 l 2429 693 l 2257 693 z m 2083 694 l 2256 694 l 2256 867 l 2083 867 z m 2431 694 l 2603 694 l 2603 867 l 2431 867 z "},"x":{"ha":1389,"x_min":0,"x_max":0,"o":"m 0 0 l 519 0 l 521 174 l 867 174 l 868 521 l 1040 521 l 1042 694 l 1214 694 l 1214 867 l 694 867 l 694 694 l 347 693 l 347 347 l 174 346 l 174 174 l 0 174 z m 868 0 l 1214 0 l 1214 172 l 868 172 z m 0 694 l 346 694 l 346 867 l 0 867 z "},"y":{"ha":1736,"x_min":0,"x_max":0,"o":"m 347 -521 l 693 -521 l 694 -347 l 867 -347 l 867 -175 l 347 -175 z m 868 -174 l 1040 -174 l 1040 172 l 867 172 l 867 519 l 693 519 l 694 694 l 867 694 l 867 867 l 521 867 l 521 694 l 346 693 l 346 867 l 0 867 l 0 694 l 174 694 l 174 521 l 347 521 l 347 174 l 521 174 l 521 0 l 868 0 z m 1042 174 l 1214 174 l 1214 519 l 1042 519 z m 1215 521 l 1388 521 l 1388 693 l 1215 693 z m 1042 694 l 1214 694 l 1214 867 l 1042 867 z m 1389 694 l 1561 694 l 1561 867 l 1389 867 z "},"z":{"ha":1389,"x_min":0,"x_max":0,"o":"m 0 0 l 1214 0 l 1214 346 l 868 346 l 868 174 l 693 172 l 694 347 l 867 347 l 868 521 l 1040 521 l 1042 694 l 1214 694 l 1214 867 l 0 867 l 0 521 l 346 521 l 347 694 l 521 694 l 521 521 l 347 519 l 347 347 l 174 346 l 174 174 l 0 174 z "},"{":{"ha":1215,"x_min":0,"x_max":0,"o":"m 521 -347 l 1040 -347 l 1040 -175 l 693 -175 l 693 519 l 519 519 l 521 694 l 693 694 l 694 1389 l 1040 1389 l 1040 1561 l 521 1561 l 521 1389 l 347 1388 l 347 694 l 0 693 l 0 521 l 347 521 l 347 -174 l 521 -174 z "},"|":{"ha":521,"x_min":0,"x_max":0,"o":"m 0 0 l 0 -347 l 346 -347 l 346 1561 l 0 1561 z "},"}":{"ha":1215,"x_min":0,"x_max":0,"o":"m 0 -347 l 519 -347 l 521 -174 l 693 -174 l 694 521 l 1040 521 l 1040 693 l 693 693 l 693 1388 l 519 1388 l 519 1561 l 0 1561 l 0 1389 l 347 1389 l 347 694 l 521 694 l 521 521 l 347 519 l 347 -174 l 0 -174 z "},"~":{"ha":1563,"x_min":0,"x_max":0,"o":"m 1042 868 l 1214 868 l 1215 1042 l 1388 1042 l 1388 1388 l 1042 1388 l 1042 1042 l 867 1040 l 867 1214 l 693 1214 l 693 1388 l 174 1388 l 174 1215 l 0 1214 l 0 868 l 346 868 l 347 1215 l 521 1215 l 521 1042 l 694 1042 l 694 868 z "},"":{"ha":1389,"x_min":0,"x_max":0,"o":"m 0 0 l 519 0 l 519 1040 l 347 1040 l 347 174 l 172 172 l 174 347 l 346 347 l 346 519 l 172 519 l 172 1040 l 0 1040 z m 694 0 l 1214 0 l 1214 1040 l 1042 1040 l 1042 174 l 867 172 l 868 347 l 1040 347 l 1040 519 l 867 519 l 867 1040 l 694 1040 z m 174 1042 l 346 1042 l 346 1214 l 174 1214 z m 868 1042 l 1040 1042 l 1040 1214 l 868 1214 z "},"":{"ha":1389,"x_min":0,"x_max":0,"o":"m 0 0 l 174 0 l 174 -174 l 347 -174 l 347 -347 l 1040 -347 l 1042 -174 l 1214 -174 l 1214 -1 l 868 -1 l 868 -174 l 519 -175 l 521 0 l 693 0 l 693 172 l 519 172 l 521 347 l 693 347 l 693 519 l 519 519 l 521 694 l 868 694 l 868 521 l 1214 521 l 1214 693 l 1040 693 l 1040 867 l 347 867 l 347 694 l 174 693 l 174 521 l 0 519 l 0 347 l 174 347 l 174 174 l 0 174 z "},"":{"ha":1389,"x_min":0,"x_max":0,"o":"m 0 0 l 519 0 l 519 1040 l 347 1040 l 347 174 l 172 172 l 174 347 l 346 347 l 346 519 l 172 519 l 172 1040 l 0 1040 z m 694 0 l 1214 0 l 1214 1040 l 1042 1040 l 1042 174 l 867 172 l 868 347 l 1040 347 l 1040 519 l 867 519 l 867 1040 l 694 1040 z m 174 1042 l 346 1042 l 346 1214 l 174 1214 z m 868 1042 l 1040 1042 l 1040 1214 l 868 1214 z "},"‚":{"ha":694,"x_min":0,"x_max":0,"o":"m 0 -174 l 346 -174 l 347 0 l 519 0 l 519 346 l 174 346 l 174 0 l 0 0 z "},"ƒ":{"ha":1042,"x_min":0,"x_max":0,"o":"m 0 0 l 346 0 l 346 172 l 0 172 z "},"„":{"ha":1389,"x_min":0,"x_max":0,"o":"m 0 0 l 346 0 l 347 174 l 868 174 l 868 0 l 1214 0 l 1214 172 l 1040 172 l 1040 346 l 867 346 l 868 521 l 1040 521 l 1042 694 l 1214 694 l 1214 867 l 693 867 l 693 1214 l 521 1214 l 521 868 l 0 867 l 0 694 l 174 694 l 174 521 l 347 521 l 347 347 l 174 346 l 174 174 l 0 174 z "},"…":{"ha":1389,"x_min":0,"x_max":0,"o":"m 0 0 l 519 0 l 519 1040 l 347 1040 l 347 174 l 172 172 l 174 347 l 346 347 l 346 519 l 172 519 l 172 1040 l 0 1040 z m 694 0 l 1214 0 l 1214 1040 l 1042 1040 l 1042 174 l 867 172 l 868 347 l 1040 347 l 1040 519 l 867 519 l 867 1040 l 694 1040 z m 174 1042 l 346 1042 l 346 1214 l 174 1214 z m 868 1042 l 1040 1042 l 1040 1214 l 868 1214 z "},"†":{"ha":1389,"x_min":0,"x_max":0,"o":"m 0 0 l 519 0 l 519 1040 l 347 1040 l 347 174 l 172 172 l 174 347 l 346 347 l 346 519 l 172 519 l 172 1040 l 0 1040 z m 694 0 l 1214 0 l 1214 1040 l 1042 1040 l 1042 174 l 867 172 l 868 347 l 1040 347 l 1040 519 l 867 519 l 867 1040 l 694 1040 z m 174 1042 l 346 1042 l 346 1214 l 174 1214 z m 868 1042 l 1040 1042 l 1040 1214 l 868 1214 z "},"‡":{"ha":1389,"x_min":0,"x_max":0,"o":"m 0 0 l 519 0 l 519 1040 l 347 1040 l 347 174 l 172 172 l 174 347 l 346 347 l 346 519 l 172 519 l 172 1040 l 0 1040 z m 694 0 l 1214 0 l 1214 1040 l 1042 1040 l 1042 174 l 867 172 l 868 347 l 1040 347 l 1040 519 l 867 519 l 867 1040 l 694 1040 z m 174 1042 l 346 1042 l 346 1214 l 174 1214 z m 868 1042 l 1040 1042 l 1040 1214 l 868 1214 z "},"ˆ":{"ha":1042,"x_min":0,"x_max":0,"o":"m 0 0 l 346 0 l 346 172 l 0 172 z "},"‰":{"ha":1389,"x_min":0,"x_max":0,"o":"m 0 0 l 519 0 l 519 1040 l 347 1040 l 347 174 l 172 172 l 174 347 l 346 347 l 346 519 l 172 519 l 172 1040 l 0 1040 z m 694 0 l 1214 0 l 1214 1040 l 1042 1040 l 1042 174 l 867 172 l 868 347 l 1040 347 l 1040 519 l 867 519 l 867 1040 l 694 1040 z m 174 1042 l 346 1042 l 346 1214 l 174 1214 z m 868 1042 l 1040 1042 l 1040 1214 l 868 1214 z "},"Š":{"ha":1389,"x_min":0,"x_max":0,"o":"m 0 0 l 519 0 l 519 1040 l 347 1040 l 347 174 l 172 172 l 174 347 l 346 347 l 346 519 l 172 519 l 172 1040 l 0 1040 z m 694 0 l 1214 0 l 1214 1040 l 1042 1040 l 1042 174 l 867 172 l 868 347 l 1040 347 l 1040 519 l 867 519 l 867 1040 l 694 1040 z m 174 1042 l 346 1042 l 346 1214 l 174 1214 z m 868 1042 l 1040 1042 l 1040 1214 l 868 1214 z "},"‹":{"ha":1389,"x_min":0,"x_max":0,"o":"m 0 0 l 519 0 l 519 1040 l 347 1040 l 347 174 l 172 172 l 174 347 l 346 347 l 346 519 l 172 519 l 172 1040 l 0 1040 z m 694 0 l 1214 0 l 1214 1040 l 1042 1040 l 1042 174 l 867 172 l 868 347 l 1040 347 l 1040 519 l 867 519 l 867 1040 l 694 1040 z m 174 1042 l 346 1042 l 346 1214 l 174 1214 z m 868 1042 l 1040 1042 l 1040 1214 l 868 1214 z "},"Œ":{"ha":1042,"x_min":0,"x_max":0,"o":"m 0 0 l 346 0 l 346 172 l 0 172 z "},"":{"ha":1042,"x_min":0,"x_max":0,"o":"m 0 0 l 346 0 l 346 172 l 0 172 z "},"":{"ha":1389,"x_min":0,"x_max":0,"o":"m 0 0 l 519 0 l 519 1040 l 347 1040 l 347 174 l 172 172 l 174 347 l 346 347 l 346 519 l 172 519 l 172 1040 l 0 1040 z m 694 0 l 1214 0 l 1214 1040 l 1042 1040 l 1042 174 l 867 172 l 868 347 l 1040 347 l 1040 519 l 867 519 l 867 1040 l 694 1040 z m 174 1042 l 346 1042 l 346 1214 l 174 1214 z m 868 1042 l 1040 1042 l 1040 1214 l 868 1214 z "},"":{"ha":1042,"x_min":0,"x_max":0,"o":"m 0 0 l 346 0 l 346 172 l 0 172 z "},"":{"ha":2431,"x_min":0,"x_max":0,"o":"m 0 0 l 0 -174 l 519 -174 l 521 0 l 693 0 l 694 174 l 867 174 l 868 347 l 1388 347 l 1389 868 l 2256 868 l 2256 1388 l 1910 1388 l 1910 1215 l 346 1214 l 346 1388 l 0 1388 l 0 1215 l 174 1215 l 174 1042 l 347 1042 l 347 868 l 174 867 l 174 694 l 1215 694 l 1215 521 l 867 519 l 867 693 l 0 693 z "},"‘":{"ha":694,"x_min":0,"x_max":0,"o":"m 0 1042 l 346 1042 l 347 1389 l 519 1389 l 519 1561 l 174 1561 l 174 1389 l 0 1389 z "},"’":{"ha":694,"x_min":0,"x_max":0,"o":"m 0 1042 l 346 1042 l 347 1215 l 519 1215 l 519 1561 l 174 1561 l 174 1215 l 0 1215 z "},"“":{"ha":1215,"x_min":0,"x_max":0,"o":"m 0 1042 l 346 1042 l 347 1389 l 519 1389 l 519 1561 l 174 1561 l 174 1389 l 0 1389 z m 521 1042 l 867 1042 l 868 1389 l 1040 1389 l 1040 1561 l 694 1561 l 694 1389 l 521 1389 z "},"”":{"ha":1215,"x_min":0,"x_max":0,"o":"m 0 1042 l 346 1042 l 347 1215 l 519 1215 l 519 1561 l 174 1561 l 174 1215 l 0 1215 z m 521 1042 l 867 1042 l 868 1215 l 1040 1215 l 1040 1561 l 694 1561 l 694 1215 l 521 1215 z "},"•":{"ha":868,"x_min":0,"x_max":0,"o":"m 174 347 l 519 347 l 521 521 l 693 521 l 693 867 l 519 867 l 519 1040 l 174 1040 l 174 868 l 0 867 l 0 521 l 174 521 z "},"–":{"ha":694,"x_min":0,"x_max":0,"o":"m 0 694 l 519 694 l 519 867 l 0 867 z "},"—":{"ha":1215,"x_min":0,"x_max":0,"o":"m 0 694 l 1040 694 l 1040 867 l 0 867 z "},"˜":{"ha":1042,"x_min":0,"x_max":0,"o":"m 0 0 l 346 0 l 346 172 l 0 172 z "},"™":{"ha":1389,"x_min":0,"x_max":0,"o":"m 0 0 l 519 0 l 519 1040 l 347 1040 l 347 174 l 172 172 l 174 347 l 346 347 l 346 519 l 172 519 l 172 1040 l 0 1040 z m 694 0 l 1214 0 l 1214 1040 l 1042 1040 l 1042 174 l 867 172 l 868 347 l 1040 347 l 1040 519 l 867 519 l 867 1040 l 694 1040 z m 174 1042 l 346 1042 l 346 1214 l 174 1214 z m 868 1042 l 1040 1042 l 1040 1214 l 868 1214 z "},"š":{"ha":1042,"x_min":0,"x_max":0,"o":"m 0 0 l 693 0 l 693 172 l 0 172 z "},"›":{"ha":1389,"x_min":0,"x_max":0,"o":"m 0 0 l 519 0 l 519 1040 l 347 1040 l 347 174 l 172 172 l 174 347 l 346 347 l 346 519 l 172 519 l 172 1040 l 0 1040 z m 694 0 l 1214 0 l 1214 1040 l 1042 1040 l 1042 174 l 867 172 l 868 347 l 1040 347 l 1040 519 l 867 519 l 867 1040 l 694 1040 z m 174 1042 l 346 1042 l 346 1214 l 174 1214 z m 868 1042 l 1040 1042 l 1040 1214 l 868 1214 z "},"œ":{"ha":1042,"x_min":0,"x_max":0,"o":"m 0 0 l 346 0 l 346 172 l 0 172 z "},"":{"ha":1042,"x_min":0,"x_max":0,"o":"m 0 0 l 346 0 l 346 172 l 0 172 z "},"":{"ha":1042,"x_min":0,"x_max":0,"o":"m 0 0 l 693 0 l 693 172 l 0 172 z "},"Ÿ":{"ha":1042,"x_min":0,"x_max":0,"o":"m 0 0 l 346 0 l 346 172 l 0 172 z "},"¡":{"ha":1042,"x_min":0,"x_max":0,"o":"m 0 0 l 346 0 l 346 172 l 0 172 z "},"¢":{"ha":1042,"x_min":0,"x_max":0,"o":"m 0 0 l 346 0 l 346 172 l 0 172 z "},"£":{"ha":1042,"x_min":0,"x_max":0,"o":"m 0 0 l 346 0 l 346 172 l 0 172 z "},"¤":{"ha":1389,"x_min":0,"x_max":0,"o":"m 0 0 l 519 0 l 519 1040 l 347 1040 l 347 174 l 172 172 l 174 347 l 346 347 l 346 519 l 172 519 l 172 1040 l 0 1040 z m 694 0 l 1214 0 l 1214 1040 l 1042 1040 l 1042 174 l 867 172 l 868 347 l 1040 347 l 1040 519 l 867 519 l 867 1040 l 694 1040 z m 174 1042 l 346 1042 l 346 1214 l 174 1214 z m 868 1042 l 1040 1042 l 1040 1214 l 868 1214 z "},"¥":{"ha":1042,"x_min":0,"x_max":0,"o":"m 0 0 l 346 0 l 346 172 l 0 172 z "},"¦":{"ha":1389,"x_min":0,"x_max":0,"o":"m 0 0 l 519 0 l 519 1040 l 347 1040 l 347 174 l 172 172 l 174 347 l 346 347 l 346 519 l 172 519 l 172 1040 l 0 1040 z m 694 0 l 1214 0 l 1214 1040 l 1042 1040 l 1042 174 l 867 172 l 868 347 l 1040 347 l 1040 519 l 867 519 l 867 1040 l 694 1040 z m 174 1042 l 346 1042 l 346 1214 l 174 1214 z m 868 1042 l 1040 1042 l 1040 1214 l 868 1214 z "},"§":{"ha":1389,"x_min":0,"x_max":0,"o":"m 0 0 l 519 0 l 519 1040 l 347 1040 l 347 174 l 172 172 l 174 347 l 346 347 l 346 519 l 172 519 l 172 1040 l 0 1040 z m 694 0 l 1214 0 l 1214 1040 l 1042 1040 l 1042 174 l 867 172 l 868 347 l 1040 347 l 1040 519 l 867 519 l 867 1040 l 694 1040 z m 174 1042 l 346 1042 l 346 1214 l 174 1214 z m 868 1042 l 1040 1042 l 1040 1214 l 868 1214 z "},"¨":{"ha":1389,"x_min":0,"x_max":0,"o":"m 0 0 l 519 0 l 519 1040 l 347 1040 l 347 174 l 172 172 l 174 347 l 346 347 l 346 519 l 172 519 l 172 1040 l 0 1040 z m 694 0 l 1214 0 l 1214 1040 l 1042 1040 l 1042 174 l 867 172 l 868 347 l 1040 347 l 1040 519 l 867 519 l 867 1040 l 694 1040 z m 174 1042 l 346 1042 l 346 1214 l 174 1214 z m 868 1042 l 1040 1042 l 1040 1214 l 868 1214 z "},"©":{"ha":1389,"x_min":0,"x_max":0,"o":"m 0 0 l 519 0 l 519 1040 l 347 1040 l 347 174 l 172 172 l 174 347 l 346 347 l 346 519 l 172 519 l 172 1040 l 0 1040 z m 694 0 l 1214 0 l 1214 1040 l 1042 1040 l 1042 174 l 867 172 l 868 347 l 1040 347 l 1040 519 l 867 519 l 867 1040 l 694 1040 z m 174 1042 l 346 1042 l 346 1214 l 174 1214 z m 868 1042 l 1040 1042 l 1040 1214 l 868 1214 z "},"ª":{"ha":1042,"x_min":0,"x_max":0,"o":"m 0 0 l 346 0 l 346 172 l 0 172 z "},"«":{"ha":1389,"x_min":0,"x_max":0,"o":"m 0 0 l 519 0 l 519 1040 l 347 1040 l 347 174 l 172 172 l 174 347 l 346 347 l 346 519 l 172 519 l 172 1040 l 0 1040 z m 694 0 l 1214 0 l 1214 1040 l 1042 1040 l 1042 174 l 867 172 l 868 347 l 1040 347 l 1040 519 l 867 519 l 867 1040 l 694 1040 z m 174 1042 l 346 1042 l 346 1214 l 174 1214 z m 868 1042 l 1040 1042 l 1040 1214 l 868 1214 z "},"¬":{"ha":1042,"x_min":0,"x_max":0,"o":"m 694 0 l 867 0 l 867 172 l 694 172 z "},"­":{"ha":1389,"x_min":0,"x_max":0,"o":"m 868 521 l 1214 521 l 1214 693 l 0 693 l 0 521 z "},"®":{"ha":1389,"x_min":0,"x_max":0,"o":"m 0 0 l 519 0 l 519 1040 l 347 1040 l 347 174 l 172 172 l 174 347 l 346 347 l 346 519 l 172 519 l 172 1040 l 0 1040 z m 694 0 l 1214 0 l 1214 1040 l 1042 1040 l 1042 174 l 867 172 l 868 347 l 1040 347 l 1040 519 l 867 519 l 867 1040 l 694 1040 z m 174 1042 l 346 1042 l 346 1214 l 174 1214 z m 868 1042 l 1040 1042 l 1040 1214 l 868 1214 z "},"¯":{"ha":1042,"x_min":0,"x_max":0,"o":"m 0 0 l 346 0 l 346 172 l 0 172 z "},"°":{"ha":1389,"x_min":0,"x_max":0,"o":"m 0 0 l 519 0 l 519 1040 l 347 1040 l 347 174 l 172 172 l 174 347 l 346 347 l 346 519 l 172 519 l 172 1040 l 0 1040 z m 694 0 l 1214 0 l 1214 1040 l 1042 1040 l 1042 174 l 867 172 l 868 347 l 1040 347 l 1040 519 l 867 519 l 867 1040 l 694 1040 z m 174 1042 l 346 1042 l 346 1214 l 174 1214 z m 868 1042 l 1040 1042 l 1040 1214 l 868 1214 z "},"±":{"ha":1389,"x_min":0,"x_max":0,"o":"m 0 0 l 519 0 l 519 1040 l 347 1040 l 347 174 l 172 172 l 174 347 l 346 347 l 346 519 l 172 519 l 172 1040 l 0 1040 z m 694 0 l 1214 0 l 1214 1040 l 1042 1040 l 1042 174 l 867 172 l 868 347 l 1040 347 l 1040 519 l 867 519 l 867 1040 l 694 1040 z m 174 1042 l 346 1042 l 346 1214 l 174 1214 z m 868 1042 l 1040 1042 l 1040 1214 l 868 1214 z "},"²":{"ha":1042,"x_min":0,"x_max":0,"o":"m 0 0 l 346 0 l 346 172 l 0 172 z "},"³":{"ha":1042,"x_min":0,"x_max":0,"o":"m 0 0 l 346 0 l 346 172 l 0 172 z "},"´":{"ha":1389,"x_min":0,"x_max":0,"o":"m 0 0 l 519 0 l 519 1040 l 347 1040 l 347 174 l 172 172 l 174 347 l 346 347 l 346 519 l 172 519 l 172 1040 l 0 1040 z m 694 0 l 1214 0 l 1214 1040 l 1042 1040 l 1042 174 l 867 172 l 868 347 l 1040 347 l 1040 519 l 867 519 l 867 1040 l 694 1040 z m 174 1042 l 346 1042 l 346 1214 l 174 1214 z m 868 1042 l 1040 1042 l 1040 1214 l 868 1214 z "},"µ":{"ha":1389,"x_min":0,"x_max":0,"o":"m 0 0 l 519 0 l 519 1040 l 347 1040 l 347 174 l 172 172 l 174 347 l 346 347 l 346 519 l 172 519 l 172 1040 l 0 1040 z m 694 0 l 1214 0 l 1214 1040 l 1042 1040 l 1042 174 l 867 172 l 868 347 l 1040 347 l 1040 519 l 867 519 l 867 1040 l 694 1040 z m 174 1042 l 346 1042 l 346 1214 l 174 1214 z m 868 1042 l 1040 1042 l 1040 1214 l 868 1214 z "},"¶":{"ha":1389,"x_min":0,"x_max":0,"o":"m 0 0 l 519 0 l 519 1040 l 347 1040 l 347 174 l 172 172 l 174 347 l 346 347 l 346 519 l 172 519 l 172 1040 l 0 1040 z m 694 0 l 1214 0 l 1214 1040 l 1042 1040 l 1042 174 l 867 172 l 868 347 l 1040 347 l 1040 519 l 867 519 l 867 1040 l 694 1040 z m 174 1042 l 346 1042 l 346 1214 l 174 1214 z m 868 1042 l 1040 1042 l 1040 1214 l 868 1214 z "},"·":{"ha":1389,"x_min":0,"x_max":0,"o":"m 0 0 l 519 0 l 519 1040 l 347 1040 l 347 174 l 172 172 l 174 347 l 346 347 l 346 519 l 172 519 l 172 1040 l 0 1040 z m 694 0 l 1214 0 l 1214 1040 l 1042 1040 l 1042 174 l 867 172 l 868 347 l 1040 347 l 1040 519 l 867 519 l 867 1040 l 694 1040 z m 174 1042 l 346 1042 l 346 1214 l 174 1214 z m 868 1042 l 1040 1042 l 1040 1214 l 868 1214 z "},"¸":{"ha":1389,"x_min":0,"x_max":0,"o":"m 0 0 l 519 0 l 519 1040 l 347 1040 l 347 174 l 172 172 l 174 347 l 346 347 l 346 519 l 172 519 l 172 1040 l 0 1040 z m 694 0 l 1214 0 l 1214 1040 l 1042 1040 l 1042 174 l 867 172 l 868 347 l 1040 347 l 1040 519 l 867 519 l 867 1040 l 694 1040 z m 174 1042 l 346 1042 l 346 1214 l 174 1214 z m 868 1042 l 1040 1042 l 1040 1214 l 868 1214 z "},"¹":{"ha":1042,"x_min":0,"x_max":0,"o":"m 0 0 l 346 0 l 346 172 l 0 172 z "},"º":{"ha":1042,"x_min":0,"x_max":0,"o":"m 0 0 l 346 0 l 346 172 l 0 172 z "},"»":{"ha":1389,"x_min":0,"x_max":0,"o":"m 0 0 l 172 0 l 172 172 l 0 172 z m 694 0 l 867 0 l 867 172 l 694 172 z "},"¼":{"ha":1042,"x_min":0,"x_max":0,"o":"m 0 0 l 346 0 l 346 172 l 0 172 z "},"½":{"ha":1042,"x_min":0,"x_max":0,"o":"m 0 0 l 346 0 l 347 174 l 519 174 l 521 347 l 693 347 l 694 521 l 867 521 l 867 693 l 693 693 l 693 867 l 519 867 l 519 1040 l 346 1040 l 346 1214 l 0 1214 l 0 1042 l 174 1042 l 174 868 l 347 868 l 347 694 l 521 694 l 521 521 l 347 519 l 347 347 l 174 346 l 174 174 l 0 174 z "},"¾":{"ha":1042,"x_min":0,"x_max":0,"o":"m 0 0 l 346 0 l 347 174 l 519 174 l 521 347 l 693 347 l 694 521 l 867 521 l 867 693 l 693 693 l 693 867 l 519 867 l 519 1040 l 346 1040 l 346 1214 l 0 1214 l 0 1042 l 174 1042 l 174 868 l 347 868 l 347 694 l 521 694 l 521 521 l 347 519 l 347 347 l 174 346 l 174 174 l 0 174 z "},"¿":{"ha":1042,"x_min":0,"x_max":0,"o":"m 0 0 l 346 0 l 347 174 l 519 174 l 521 347 l 693 347 l 694 521 l 867 521 l 867 693 l 693 693 l 693 867 l 519 867 l 519 1040 l 346 1040 l 346 1214 l 0 1214 l 0 1042 l 174 1042 l 174 868 l 347 868 l 347 694 l 521 694 l 521 521 l 347 519 l 347 347 l 174 346 l 174 174 l 0 174 z "},"À":{"ha":1042,"x_min":0,"x_max":0,"o":"m 0 0 l 346 0 l 346 172 l 0 172 z "},"Á":{"ha":1389,"x_min":0,"x_max":0,"o":"m 0 0 l 519 0 l 519 172 l 0 172 z m 694 0 l 1214 0 l 1214 172 l 694 172 z "},"Â":{"ha":1389,"x_min":0,"x_max":0,"o":"m 0 0 l 519 0 l 519 172 l 0 172 z m 694 0 l 1214 0 l 1214 172 l 694 172 z "},"Ã":{"ha":1042,"x_min":0,"x_max":0,"o":"m 0 0 l 346 0 l 346 172 l 0 172 z "},"Ä":{"ha":1389,"x_min":0,"x_max":0,"o":"m 0 0 l 519 0 l 519 172 l 0 172 z m 694 0 l 1214 0 l 1214 172 l 694 172 z "},"Å":{"ha":1042,"x_min":0,"x_max":0,"o":"m 0 0 l 346 0 l 346 172 l 0 172 z "},"Æ":{"ha":1042,"x_min":0,"x_max":0,"o":"m 0 0 l 346 0 l 346 172 l 0 172 z "},"Ç":{"ha":1389,"x_min":0,"x_max":0,"o":"m 347 0 l 1040 0 l 1040 172 l 347 172 z "},"È":{"ha":1042,"x_min":0,"x_max":0,"o":"m 0 0 l 346 0 l 346 172 l 0 172 z "},"É":{"ha":1389,"x_min":0,"x_max":0,"o":"m 0 0 l 1214 0 l 1214 172 l 0 172 z "},"Ê":{"ha":1042,"x_min":0,"x_max":0,"o":"m 0 0 l 346 0 l 346 172 l 0 172 z "},"Ë":{"ha":1389,"x_min":0,"x_max":0,"o":"m 0 0 l 1214 0 l 1214 172 l 0 172 z "},"Ì":{"ha":1042,"x_min":0,"x_max":0,"o":"m 0 0 l 346 0 l 346 172 l 0 172 z "},"Í":{"ha":1042,"x_min":0,"x_max":0,"o":"m 0 0 l 867 0 l 867 172 l 0 172 z "},"Î":{"ha":1042,"x_min":0,"x_max":0,"o":"m 0 0 l 867 0 l 867 172 l 0 172 z "},"Ï":{"ha":1042,"x_min":0,"x_max":0,"o":"m 0 0 l 346 0 l 346 172 l 0 172 z "},"Ð":{"ha":1042,"x_min":0,"x_max":0,"o":"m 0 0 l 346 0 l 346 172 l 0 172 z "},"Ñ":{"ha":1042,"x_min":0,"x_max":0,"o":"m 0 0 l 346 0 l 346 172 l 0 172 z "},"Ò":{"ha":1042,"x_min":0,"x_max":0,"o":"m 0 0 l 346 0 l 346 172 l 0 172 z "},"Ó":{"ha":1389,"x_min":0,"x_max":0,"o":"m 347 0 l 867 0 l 867 172 l 347 172 z "},"Ô":{"ha":1389,"x_min":0,"x_max":0,"o":"m 347 0 l 867 0 l 867 172 l 347 172 z "},"Õ":{"ha":1042,"x_min":0,"x_max":0,"o":"m 0 0 l 346 0 l 346 172 l 0 172 z "},"Ö":{"ha":1389,"x_min":0,"x_max":0,"o":"m 347 0 l 867 0 l 867 172 l 347 172 z "},"×":{"ha":1389,"x_min":0,"x_max":0,"o":"m 0 0 l 519 0 l 519 172 l 0 172 z m 694 0 l 1214 0 l 1214 172 l 694 172 z "},"Ø":{"ha":1042,"x_min":0,"x_max":0,"o":"m 0 0 l 346 0 l 346 172 l 0 172 z "},"Ù":{"ha":1042,"x_min":0,"x_max":0,"o":"m 0 0 l 346 0 l 346 172 l 0 172 z "},"Ú":{"ha":1389,"x_min":0,"x_max":0,"o":"m 347 0 l 867 0 l 867 172 l 347 172 z "},"Û":{"ha":1042,"x_min":0,"x_max":0,"o":"m 0 0 l 346 0 l 346 172 l 0 172 z "},"Ü":{"ha":1389,"x_min":0,"x_max":0,"o":"m 347 0 l 867 0 l 867 172 l 347 172 z "},"Ý":{"ha":1389,"x_min":0,"x_max":0,"o":"m 347 0 l 867 0 l 867 172 l 347 172 z "},"Þ":{"ha":1042,"x_min":0,"x_max":0,"o":"m 0 0 l 346 0 l 346 172 l 0 172 z "},"ß":{"ha":1389,"x_min":0,"x_max":0,"o":"m 0 0 l 346 0 l 346 172 l 0 172 z m 521 0 l 1040 0 l 1040 172 l 521 172 z "},"à":{"ha":1042,"x_min":0,"x_max":0,"o":"m 0 0 l 346 0 l 346 172 l 0 172 z "},"á":{"ha":1389,"x_min":0,"x_max":0,"o":"m 0 0 l 521 0 l 521 868 l 0 868 z m 174 174 l 174 694 l 347 694 l 347 174 z "},"â":{"ha":1389,"x_min":0,"x_max":0,"o":"m 0 0 l 521 0 l 521 868 l 0 868 z m 174 174 l 174 694 l 347 694 l 347 174 z "},"ã":{"ha":1042,"x_min":0,"x_max":0,"o":"m 0 0 l 346 0 l 346 172 l 0 172 z "},"ä":{"ha":1389,"x_min":0,"x_max":0,"o":"m 0 0 l 521 0 l 521 868 l 0 868 z m 174 174 l 174 694 l 347 694 l 347 174 z "},"å":{"ha":1042,"x_min":0,"x_max":0,"o":"m 0 0 l 346 0 l 346 172 l 0 172 z "},"æ":{"ha":1042,"x_min":0,"x_max":0,"o":"m 0 0 l 346 0 l 346 172 l 0 172 z "},"ç":{"ha":1389,"x_min":0,"x_max":0,"o":"m 174 0 l 1040 0 l 1040 172 l 174 172 z "},"è":{"ha":1042,"x_min":0,"x_max":0,"o":"m 0 0 l 346 0 l 346 172 l 0 172 z "},"é":{"ha":1389,"x_min":0,"x_max":0,"o":"m 174 0 l 1040 0 l 1040 172 l 174 172 z "},"ê":{"ha":1042,"x_min":0,"x_max":0,"o":"m 0 0 l 346 0 l 346 172 l 0 172 z "},"ë":{"ha":1389,"x_min":0,"x_max":0,"o":"m 174 0 l 1040 0 l 1040 172 l 174 172 z "},"ì":{"ha":1042,"x_min":0,"x_max":0,"o":"m 0 0 l 346 0 l 346 172 l 0 172 z "},"í":{"ha":1042,"x_min":0,"x_max":0,"o":"m 0 0 l 867 0 l 867 172 l 0 172 z "},"î":{"ha":1042,"x_min":0,"x_max":0,"o":"m 0 0 l 867 0 l 867 172 l 0 172 z "},"ï":{"ha":1042,"x_min":0,"x_max":0,"o":"m 0 0 l 346 0 l 346 172 l 0 172 z "},"ð":{"ha":1042,"x_min":0,"x_max":0,"o":"m 0 0 l 346 0 l 346 172 l 0 172 z "},"ñ":{"ha":1042,"x_min":0,"x_max":0,"o":"m 0 0 l 346 0 l 346 172 l 0 172 z "},"ò":{"ha":1042,"x_min":0,"x_max":0,"o":"m 0 0 l 346 0 l 346 172 l 0 172 z "},"ó":{"ha":1389,"x_min":0,"x_max":0,"o":"m 174 0 l 1040 0 l 1040 172 l 174 172 z "},"ô":{"ha":1389,"x_min":0,"x_max":0,"o":"m 174 0 l 1040 0 l 1040 172 l 174 172 z "},"õ":{"ha":1042,"x_min":0,"x_max":0,"o":"m 0 0 l 346 0 l 346 172 l 0 172 z "},"ö":{"ha":1389,"x_min":0,"x_max":0,"o":"m 174 0 l 1040 0 l 1040 172 l 174 172 z "},"÷":{"ha":1389,"x_min":0,"x_max":0,"o":"m 521 0 l 693 0 l 693 172 l 521 172 z "},"ø":{"ha":1042,"x_min":0,"x_max":0,"o":"m 0 0 l 346 0 l 346 172 l 0 172 z "},"ù":{"ha":1042,"x_min":0,"x_max":0,"o":"m 0 0 l 346 0 l 346 172 l 0 172 z "},"ú":{"ha":1389,"x_min":0,"x_max":0,"o":"m 347 0 l 693 0 l 693 172 l 347 172 z m 868 0 l 1214 0 l 1214 172 l 868 172 z "},"û":{"ha":1042,"x_min":0,"x_max":0,"o":"m 0 0 l 346 0 l 346 172 l 0 172 z "},"ü":{"ha":1389,"x_min":0,"x_max":0,"o":"m 347 0 l 693 0 l 693 172 l 347 172 z m 868 0 l 1214 0 l 1214 172 l 868 172 z "},"ý":{"ha":1389,"x_min":0,"x_max":0,"o":"m 521 0 l 693 0 l 693 172 l 521 172 z "},"þ":{"ha":1042,"x_min":0,"x_max":0,"o":"m 0 0 l 346 0 l 346 172 l 0 172 z "},"ÿ":{"ha":1042,"x_min":0,"x_max":0,"o":"m 0 0 l 346 0 l 346 172 l 0 172 z "},"Ā":{"ha":347,"x_min":0,"x_max":0,"o":"m 0 0 l 172 0 l 172 172 l 0 172 z "}}}
